# xmcd
# 
# Track frame offsets:
#     151
#     70346
#     168095
#     219230
#     276179
#     286336
#     297503
# 
# Disc length: 4291
# 
# Revision: 3
# Processed by: cddbd v1.5.2PL0 Copyright (c) Steve Scherf et al.
# Submitted via: BonkEnc v1.0.8
# 
DISCID=6c10c107
DTITLE=Clifford Brown, Eric Dolphy - Together 1954
DYEAR=1954
DGENRE=Jazz
TTITLE0=Deception
TTITLE1=Fine And Dandy
TTITLE2=Unknown Original Tune
TTITLE3=Crazeology
TTITLE4=Old Folks
TTITLE5=There'll Never Be Another You
TTITLE6=Our Love Is Here To Stay
EXTD=YEAR: 1954
EXTT0=
EXTT1=
EXTT2=
EXTT3=
EXTT4=
EXTT5=
EXTT6=
PLAYORDER=
